# xmcd
#
# Track frame offsets: 
#        150
#        12505
#        32056
#        48697
#        66612
#        83161
#        105061
#        118149
#        138737
#        149784
#        166880
#        180942
#
# Disc length: 2909 seconds
#
# Revision: 0
# Processed by: cddbd v1.5.2PL0 Copyright (c) Steve Scherf et al.
# Submitted via: ExactAudioCopy v0.95b3
#
DISCID=ac0b5b0c
DTITLE=Red Hill - Brand New Blue Skies
DYEAR=2006
DGENRE=Country
TTITLE0=Man enuf for me
TTITLE1=I still think of you
TTITLE2=What u get is what u c
TTITLE3=Drink you away
TTITLE4=Whiskey on my breath
TTITLE5=Wishin' on a kiss
TTITLE6=Brand new blue skies
TTITLE7=Doesn't anybody (stay together anymore)
TTITLE8=Northern girl blues
TTITLE9=Somebody blue
TTITLE10=Tellin' all your lies goodbye
TTITLE11=Into the night
EXTD=
EXTT0=
EXTT1=
EXTT2=
EXTT3=
EXTT4=
EXTT5=
EXTT6=
EXTT7=
EXTT8=
EXTT9=
EXTT10=
EXTT11=
PLAYORDER=
